<?xml version="1.0" encoding="utf-8"?>
<!-- Generator: Adobe Illustrator 16.0.0, SVG Export Plug-In . SVG Version: 6.00 Build 0)  -->
<!DOCTYPE svg PUBLIC "-//W3C//DTD SVG 1.1//EN" "http://www.w3.org/Graphics/SVG/1.1/DTD/svg11.dtd">
<svg version="1.1" id="Layer_1" xmlns="http://www.w3.org/2000/svg" xmlns:xlink="http://www.w3.org/1999/xlink" x="0px" y="0px"
	 width="1245.967px" height="208.602px" viewBox="205.28 373.307 1245.967 208.602"
	 enable-background="new 205.28 373.307 1245.967 208.602" xml:space="preserve">
<path fill="#FFFFFF" d="M-53,198.392"/>
<path d="M483.199,576.333L456.146,504.1h-7.81l-12.271,72.233h-62.188l34.86-197.449h81.153c10.78,0,20.541,1.21,29.281,3.626
	c8.737,2.42,16.177,5.951,22.312,10.597c6.136,4.649,10.827,10.367,14.083,17.152c3.25,6.788,4.879,14.55,4.879,23.287
	c0,16.363-3.858,29.839-11.572,40.437c-7.718,10.599-18.266,17.851-31.652,21.751l38.484,80.599H483.199L483.199,576.333z
	 M468.976,463.105c8.551,0,15.242-1.438,20.079-4.322c4.834-2.879,7.252-7.483,7.252-13.805c0-5.762-2.001-9.714-5.996-11.854
	c-4-2.133-9.438-3.208-16.315-3.208h-11.989l-5.856,33.188h12.826V463.105z"/>
<path d="M655.121,581.352c-15.805,0-29.798-2.189-41.971-6.555c-12.18-4.365-22.408-10.551-30.68-18.545
	c-8.272-7.992-14.548-17.475-18.822-28.448c-4.279-10.965-6.415-23.051-6.415-36.255c0-16.355,2.88-31.693,8.646-46.015
	c5.761-14.314,13.848-26.771,24.263-37.37c10.409-10.597,23.01-18.963,37.786-25.099c14.781-6.134,31.188-9.203,49.227-9.203
	c15.984,0,30.069,2.188,42.248,6.555c12.177,4.373,22.401,10.553,30.676,18.544c8.272,7.997,14.546,17.479,18.825,28.446
	c4.275,10.973,6.417,23.055,6.417,36.256c0,16.36-2.839,31.699-8.508,46.015c-5.672,14.32-13.764,26.773-24.265,37.373
	c-10.504,10.598-23.146,18.963-37.924,25.098C689.842,578.284,673.339,581.352,655.121,581.352z M708.106,468.404
	c0-5.021-0.791-9.713-2.37-14.084c-1.583-4.365-3.902-8.18-6.974-11.435c-3.066-3.251-6.88-5.81-11.432-7.668
	c-4.558-1.856-9.717-2.792-15.479-2.792c-7.252,0-13.804,1.535-19.66,4.604c-5.854,3.068-10.831,7.11-14.92,12.131
	c-4.094,5.02-7.253,10.783-9.482,17.289c-2.23,6.512-3.346,13.108-3.346,19.802c0,5.021,0.789,9.718,2.371,14.085
	c1.575,4.369,3.903,8.181,6.973,11.435c3.065,3.256,6.874,5.812,11.435,7.668c4.552,1.858,9.803,2.789,15.756,2.789
	c7.251,0,13.755-1.485,19.521-4.462c5.762-2.971,10.688-6.975,14.781-11.994c4.087-5.021,7.251-10.778,9.48-17.289
	C706.994,481.979,708.106,475.285,708.106,468.404z"/>
<path d="M827.947,576.333h-64.14l34.856-197.449h73.624c25.474,0,44.942,5.3,58.425,15.896
	c13.479,10.599,20.217,25.194,20.217,43.787c0,12.645-2.088,23.608-6.271,32.903c-4.183,9.301-10.272,16.924-18.268,22.869
	c-7.992,5.951-17.661,10.367-29.004,13.248c-11.34,2.885-24.259,4.321-38.757,4.321h-18.968L827.947,576.333z M858.344,463.385
	c8.925,0,15.901-1.485,20.921-4.463c5.021-2.972,7.527-7.622,7.527-13.943c0-5.947-2.046-10.041-6.135-12.269
	c-4.087-2.233-9.666-3.347-16.729-3.347h-9.764l-6.138,34.021L858.344,463.385L858.344,463.385z"/>
<path d="M934.402,576.333l34.859-197.449h64.982l-25.104,142.231h66.657l-9.764,55.217H934.402z"/>
<path d="M1197.194,576.333l-4.464-30.119h-64.143l-16.449,30.119h-71.953l121.312-197.449h68.049l34.581,197.449H1197.194z
	 M1181.578,446.096l-28.169,50.754h34.024L1181.578,446.096z"/>
<path d="M1417.916,563.922c-5.114,3.443-10.918,6.461-17.427,9.062c-6.511,2.604-13.807,4.738-21.896,6.414
	c-8.081,1.674-17.059,2.51-26.905,2.51c-14.875,0-28.127-2.049-39.738-6.133c-11.624-4.092-21.479-9.945-29.562-17.572
	c-8.089-7.623-14.273-16.822-18.551-27.61c-4.279-10.776-6.409-22.771-6.409-35.974c0-16.918,2.924-32.722,8.78-47.411
	c5.86-14.685,14.081-27.514,24.678-38.484c10.604-10.969,23.148-19.61,37.652-25.936c14.501-6.318,30.396-9.482,47.688-9.482
	c17.104,0,32.163,2.648,45.178,7.947c13.014,5.3,22.959,11.852,29.843,19.664l-44.902,46.291c-3.349-4.832-7.765-8.41-13.246-10.734
	c-5.48-2.321-11.667-3.487-18.548-3.487c-7.062,0-13.479,1.441-19.239,4.321c-5.764,2.886-10.695,6.79-14.779,11.713
	c-4.093,4.931-7.25,10.647-9.479,17.153c-2.234,6.508-3.354,13.48-3.354,20.915c0,9.67,3.021,17.85,9.066,24.54
	c6.04,6.695,15.104,10.038,27.187,10.038c7.064,0,13.667-1.482,19.803-4.459c6.141-2.972,11.438-6.596,15.9-10.876l31.788,47.41
	C1427.54,557.088,1423.031,560.483,1417.916,563.922z"/>
<path d="M231.315,429.363l14.3,34.021H225.22l-19.94,112.947h64.143l11.712-64.422H300.1c14.502,0,27.421-1.438,38.765-4.321
	c11.338-2.881,21.006-7.297,29.003-13.248c7.992-5.945,14.083-13.567,18.268-22.869c4.181-9.295,6.274-20.26,6.274-32.903
	c0-18.593-6.741-33.188-20.22-43.787c-13.48-10.597-32.955-15.896-58.425-15.896H240.14l-8.913,50.479L231.315,429.363
	 M261.359,429.363l14.301,34.021h-14.41l-14.294-34.009L261.359,429.363z M291.142,463.385l-14.148-34.021h15.148l14.301,34.021
	H291.142z M322.077,463.385l-14.3-34.021h20.307l20.976,17.01L322.077,463.385z"/>
<path fill="none" d="M320.077,463.385"/>
<path fill="none" d="M326.084,429.363"/>
</svg>
