<?xml version="1.0" encoding="utf-8"?>
<!-- Generator: Adobe Illustrator 16.0.0, SVG Export Plug-In . SVG Version: 6.00 Build 0)  -->
<!DOCTYPE svg PUBLIC "-//W3C//DTD SVG 1.1//EN" "http://www.w3.org/Graphics/SVG/1.1/DTD/svg11.dtd">
<svg version="1.1" id="Layer_1" xmlns="http://www.w3.org/2000/svg" xmlns:xlink="http://www.w3.org/1999/xlink" x="0px" y="0px"
	 width="187.13px" height="197.448px" viewBox="205.28 378.883 187.13 197.448"
	 enable-background="new 205.28 378.883 187.13 197.448" xml:space="preserve">
<path fill="#FFFFFF" d="M-53,198.392"/>
<path d="M231.315,429.363l14.3,34.021H225.22l-19.94,112.947h64.143l11.712-64.422H300.1c14.502,0,27.421-1.438,38.765-4.321
	c11.338-2.881,21.006-7.297,29.003-13.248c7.992-5.945,14.083-13.567,18.268-22.869c4.181-9.295,6.274-20.26,6.274-32.903
	c0-18.593-6.741-33.188-20.22-43.787c-13.48-10.597-32.955-15.896-58.425-15.896H240.14l-8.913,50.479L231.315,429.363
	 M261.359,429.363l14.301,34.021h-14.41l-14.294-34.009L261.359,429.363z M291.142,463.385l-14.148-34.021h15.148l14.301,34.021
	H291.142z M322.077,463.385l-14.3-34.021h20.307l20.976,17.01L322.077,463.385z"/>
<path fill="none" d="M320.077,463.385"/>
<path fill="none" d="M326.084,429.363"/>
</svg>
